<svg width="215" height="40" viewBox="0 0 215 40" fill="none" xmlns="http://www.w3.org/2000/svg">
<g clip-path="url(#clip0_202_5)">
<path d="M146.792 10.0003C141.898 10.0003 137.114 12.7445 136.564 16.7096V10.3272H129.536V29.5717H136.65V20.2566C136.65 17.6472 139.637 13.9664 146.792 13.9664V10.0003Z" fill="white"/>
<path d="M187.434 20.005C187.434 16.4962 190.353 13.6253 195.16 13.6253C199.797 13.6253 202.372 16.4962 202.372 20.005C202.372 23.5139 199.797 26.3848 195.16 26.3848C190.353 26.3848 187.434 23.5139 187.434 20.005ZM180.222 20.2177C180.222 25.9595 185.03 30 192.585 30C198.079 30 201.342 27.7671 203.059 24.1519V29.5747H210.097V10.3291H203.059V15.4329C201.514 12.0303 198.252 10.0101 193.101 10.0101C185.373 10.0101 180.222 14.3696 180.222 20.2177Z" fill="white"/>
<path d="M19.9083 30C11.1512 30 6 25.6405 6 20.2177C6 14.5823 11.6663 10.0101 22.4839 10.0101C33.6449 10.0101 37.4225 14.6886 37.5941 17.3468H29.5239C29.3522 15.8582 27.2917 13.6253 22.3121 13.6253C16.9892 13.6253 13.5551 16.4962 13.5551 20.005C13.5551 23.5139 16.9892 26.3848 22.3121 26.3848C27.1199 26.3848 29.1804 24.0456 30.039 21.7063H22.3121V19.7923H38.5257V29.5747H31.4126V23.4076C30.8975 25.6405 28.6653 30 19.9083 30Z" fill="white"/>
<path d="M52.9476 29.9998C46.251 29.9998 42.1301 27.2352 42.1301 21.7061V10.3289H49.3417V21.7061C49.3417 24.5769 51.5739 25.9592 55.3514 25.9592C62.7349 25.9592 65.4822 20.3238 65.4822 16.3896V10.3289H72.6939V29.5744H65.6539V22.4503C64.2802 26.3845 60.5027 29.9998 52.9476 29.9998Z" fill="white"/>
<path d="M115.789 10C109.636 10 105.755 13.6806 104.488 17.0837C104.271 12.5231 100.649 10 94.8545 10C89.8479 10 85.203 12.7648 83.9967 17.1388V10.3274H76.9665V29.5734H84.0868V22.6738C84.0868 20.9633 85.2383 13.9438 92.4062 13.9438C97.0494 13.9438 97.5335 16.5374 97.5335 20.0827V29.5734H104.651V22.6738C104.651 20.9633 105.85 13.9438 113.017 13.9438C117.657 13.9438 118.136 16.5374 118.136 20.0827V29.5734H125.263V18.1895C125.295 12.7282 122.181 10 115.789 10Z" fill="white"/>
<path d="M162.068 10C152.85 10 146.604 14.4757 146.604 20C146.604 26.0869 152.544 29.9999 162.068 29.9999C171.285 29.9999 177.642 25.5243 177.642 20C177.642 13.913 171.587 10 162.068 10ZM162.068 26.5933C156.701 26.5933 153.226 23.78 153.226 20C153.226 16.2199 156.713 13.4066 162.068 13.4066C167.421 13.4066 170.77 16.2199 170.77 20C170.77 23.78 167.418 26.5933 162.068 26.5933Z" fill="white"/>
</g>
<defs>
<clipPath id="clip0_202_5">
<rect width="215" height="40" fill="white"/>
</clipPath>
</defs>
</svg>
