<svg width="131" height="40" viewBox="0 0 131 40" fill="none" xmlns="http://www.w3.org/2000/svg">
<g clip-path="url(#clip0_202_2)">
<path d="M27.8109 -1V12.8544H17.0899V-1H12V32.0717H17.0899V18.6672H27.8109V32.0717H32.9008V-1H27.8109Z" fill="white"/>
<path d="M49.1904 21.3805C49.1904 22.7059 48.7468 23.9771 47.9571 24.9143C47.1674 25.8515 46.0964 26.378 44.9796 26.378C43.8628 26.378 42.7918 25.8515 42.0021 24.9143C41.2124 23.9771 40.7688 22.7059 40.7688 21.3805V7.21541H35.9407V21.3805C35.9407 24.2229 36.8921 26.9488 38.5856 28.9587C40.2791 30.9685 42.5759 32.0976 44.9709 32.0976C47.3658 32.0976 49.6627 30.9685 51.3562 28.9587C53.0497 26.9488 54.001 24.2229 54.001 21.3805V7.21541H49.1904V21.3805Z" fill="white"/>
<path d="M84.9631 8.67529C84.9631 5.77182 86.5816 4.85136 88.3547 4.85136C89.7837 4.85136 91.6715 6.14179 92.9059 7.70747L96.0681 3.28568C94.4895 0.752173 91.2874 -0.999969 88.6664 -0.999969C83.4294 -0.999969 79.6413 2.64046 79.6413 8.67529C79.6413 19.8718 91.1727 16.3202 91.1727 22.5859C91.1727 24.5186 89.5916 26.2263 87.7811 26.2263C84.9257 26.2263 84.0005 24.5689 82.6887 22.8167L79.1799 27.1468C81.4243 30.4172 84.1925 32.0776 87.5093 32.0776C92.4845 32.0776 96.4871 28.3928 96.4871 22.6332C96.4871 10.2025 84.9556 14.0649 84.9556 8.67529" fill="white"/>
<path d="M67.5687 7.38243C65.1771 7.38243 63.5087 8.20522 61.8952 10.0846V-0.801146H57.0597V19.3751C57.0597 26.9283 61.6608 32.1018 66.8305 32.1018C72.5663 32.1018 77.6113 26.8365 77.6113 19.7451C77.6113 12.7424 72.9678 7.38539 67.5687 7.38539V7.38243ZM67.5387 26.3275C66.4536 26.3275 65.3929 25.9456 64.4907 25.2301C63.5884 24.5146 62.8852 23.4977 62.4699 22.3079C62.0547 21.1181 61.946 19.8089 62.1577 18.5458C62.3694 17.2827 62.892 16.1225 63.6593 15.2119C64.4265 14.3013 65.4041 13.6811 66.4684 13.4299C67.5327 13.1787 68.6358 13.3076 69.6383 13.8004C70.6408 14.2933 71.4977 15.1278 72.1005 16.1986C72.7034 17.2694 73.0252 18.5283 73.0252 19.8161C73.0252 21.543 72.4471 23.1992 71.4182 24.4203C70.3893 25.6415 68.9938 26.3275 67.5387 26.3275Z" fill="white"/>
<path d="M120.073 19.4419C120.073 12.3386 115.038 7.08517 109.293 7.08517C104.123 7.08517 99.5219 12.2587 99.5219 19.8119V40H104.357V29.0994C105.968 30.9759 107.639 31.8016 110.028 31.8016C115.428 31.8016 120.071 26.4475 120.071 19.4419H120.073ZM115.495 19.3709C115.495 20.6587 115.173 21.9176 114.57 22.9884C113.967 24.0592 113.11 24.8938 112.108 25.3866C111.105 25.8794 110.002 26.0084 108.938 25.7571C107.874 25.5059 106.896 24.8857 106.129 23.9751C105.362 23.0645 104.839 21.9043 104.627 20.6412C104.416 19.3781 104.524 18.0689 104.94 16.8791C105.355 15.6893 106.058 14.6724 106.96 13.9569C107.863 13.2414 108.923 12.8595 110.008 12.8595C111.464 12.8595 112.859 13.5456 113.888 14.7667C114.917 15.9878 115.495 17.644 115.495 19.3709Z" fill="white"/>
</g>
<defs>
<clipPath id="clip0_202_2">
<rect width="131" height="40" fill="white"/>
</clipPath>
</defs>
</svg>
