<svg width="225" height="40" viewBox="0 0 225 40" fill="none" xmlns="http://www.w3.org/2000/svg">
<g clip-path="url(#clip0_202_11)">
<path fill-rule="evenodd" clip-rule="evenodd" d="M109.679 24.4459C107.968 24.701 107.083 24.3607 107.083 23.6279C107.083 22.6239 108.689 22.222 110.982 22.222C111.991 22.222 112.943 22.2783 112.943 22.2783C112.943 22.7081 111.499 24.1746 109.679 24.4459ZM111.42 14.3938C105.943 14.3938 102.011 15.696 102.011 15.696V19.5242C102.011 19.5242 106.352 17.9105 109.875 17.9105C112.685 17.9105 113.03 18.8908 112.903 19.7041C112.903 19.7041 112.092 19.5654 109.619 19.5654C103.788 19.5654 100.847 21.2785 100.847 24.0251C100.847 26.6305 104.153 27.7193 106.94 27.7193C111.004 27.7193 112.792 25.9526 113.341 25.1148C113.722 24.5335 113.792 24.1415 114.134 24.1415C114.525 24.1415 114.394 24.4227 114.374 25.0011C114.342 26.0146 114.416 26.7806 114.664 27.4262H120.055V21.1569C120.055 17.2425 117.913 14.3938 111.42 14.3938Z" fill="white"/>
<path fill-rule="evenodd" clip-rule="evenodd" d="M146.9 21.0629C146.9 19.9178 148.547 18.8749 151.569 18.8749C154.862 18.8749 157.511 19.9003 158.105 20.1332V15.7015C158.105 15.7015 156.013 14.3987 150.869 14.3987C145.448 14.3987 140.933 16.4498 140.933 20.865C140.933 25.2797 145.03 27.728 150.855 27.728C155.405 27.728 158.117 26.1114 158.117 26.1114V21.9026C157.259 22.2127 154.868 23.2858 151.602 23.2858C148.144 23.2858 146.9 22.2567 146.9 21.0629ZM74.8506 14.6889C74.8513 14.6917 75.1947 15.6442 74.7422 16.8896C74.5116 17.523 74.0877 18.0617 74.5995 18.0617C74.9523 18.0617 74.9531 17.8723 75.4121 17.1935C76.0835 16.2013 77.4987 14.3954 80.8058 14.3954C83.9496 14.3954 85.4307 15.6304 85.9213 16.7869C86.2946 17.6655 85.9681 18.0617 86.4235 18.0617C86.7471 18.0617 86.8591 17.6058 87.2574 17.0293C87.9727 15.9964 89.5285 14.3954 92.6752 14.3954C97.4232 14.3954 99.2359 16.6122 99.2359 19.9377V27.4307H92.1825V20.5228C92.1825 19.371 91.8948 18.2539 90.2709 18.2539C88.7663 18.2539 88.065 19.9779 88.065 21.0908V27.4336H80.8819V20.5232C80.8819 19.0496 80.5605 18.2544 78.9586 18.2544C77.5719 18.2544 76.7629 19.8406 76.7629 21.0913V27.4312H69.6085V14.6889H74.8506ZM122.403 14.7064C122.406 14.7074 123.623 15.1613 125.987 15.1613C128.355 15.1613 129.557 14.7064 129.557 14.7064V27.434H122.403V14.7064ZM181.464 14.7064C181.467 14.7074 182.684 15.1613 185.048 15.1613C187.415 15.1613 188.618 14.7064 188.618 14.7064V27.434H181.464V14.7064ZM139.026 10.8314V27.434H131.872V10.8314H139.026ZM166.607 10.8314C166.607 10.8314 166.904 11.31 166.904 12.7291C166.904 14.8248 166.199 16.5303 165.866 17.1803C165.689 17.5244 165.374 18.0555 165.826 18.065C166.087 18.0702 166.243 17.8165 166.563 17.3762C166.88 16.9355 168.456 14.3983 172.597 14.3983C178.301 14.3983 179.14 17.4184 179.14 20.6889V27.4336H171.986V20.412C171.986 18.972 171.519 18.2567 170.026 18.2567C168.223 18.2567 167.586 20.0612 167.586 21.0941V27.4336H160.432V10.8309L166.607 10.8314ZM196.277 14.6889C196.278 14.6917 196.621 15.6442 196.169 16.8896C195.938 17.523 195.514 18.0617 196.026 18.0617C196.379 18.0617 196.38 17.8723 196.839 17.1935C197.509 16.2013 198.925 14.3954 202.233 14.3954C205.52 14.3954 206.824 15.6361 207.348 16.7869C207.699 17.558 207.395 18.0617 207.85 18.0617C208.174 18.0617 208.286 17.6058 208.684 17.0293C209.398 15.9964 210.955 14.3954 214.102 14.3954C218.85 14.3954 220.663 16.6122 220.663 19.9377V27.4307H213.609V20.5228C213.609 19.371 213.322 18.2539 211.698 18.2539C210.193 18.2539 209.491 19.9779 209.491 21.0908V27.4336H202.308V20.5232C202.308 19.0496 201.988 18.2544 200.385 18.2544C198.999 18.2544 198.19 19.8406 198.19 21.0913V27.4312H191.035V14.6889H196.277ZM125.958 10.7026C123.541 10.7026 121.579 11.5301 121.579 12.5507C121.579 13.5713 123.54 14.3987 125.958 14.3987C128.377 14.3987 130.338 13.5713 130.338 12.5507C130.338 11.5301 128.378 10.7026 125.958 10.7026ZM185.02 10.7026C182.602 10.7026 180.64 11.5301 180.64 12.5507C180.64 13.5713 182.601 14.3987 185.02 14.3987C187.438 14.3987 189.4 13.5713 189.4 12.5507C189.4 11.5301 187.439 10.7026 185.02 10.7026Z" fill="white"/>
<path fill-rule="evenodd" clip-rule="evenodd" d="M44.3177 18.2377C44.7987 18.2008 45.2593 18.1989 45.6832 18.2377C45.9284 17.8741 45.9702 17.2479 45.7498 16.5657C45.4225 15.5518 44.9789 14.9383 44.0622 15.0339C43.1456 15.1295 43.1119 15.8642 43.4399 16.8777C43.6244 17.4481 43.9524 17.9357 44.3177 18.2377Z" fill="white"/>
<path fill-rule="evenodd" clip-rule="evenodd" d="M36.4537 19.0401C37.109 19.2261 37.5124 19.3497 37.6698 19.2418C37.7716 19.1745 37.7408 19.0463 37.5842 18.881C37.2606 18.5397 36.5951 18.1932 35.8885 17.9987C34.4448 17.5968 32.722 17.7303 31.3932 18.3476C30.9547 18.5554 30.5388 18.8432 30.5981 19.0178C30.6171 19.0742 30.683 19.1168 30.8368 19.131C31.1985 19.1575 32.4621 18.7447 33.9184 18.687C34.9455 18.6462 35.7978 18.8541 36.4537 19.0401Z" fill="white"/>
<path fill-rule="evenodd" clip-rule="evenodd" d="M35.1377 19.5268C34.2833 19.6139 33.8125 19.7961 33.5101 19.9651C33.2524 20.1109 33.0928 20.2723 33.0943 20.3855C33.095 20.4394 33.1309 20.4707 33.1594 20.4863C33.1982 20.5085 33.2444 20.5209 33.3 20.5209C33.4926 20.5209 33.9253 20.4087 33.9253 20.4087C35.1135 20.1336 35.8976 20.1672 36.6744 20.2241C37.1035 20.2553 37.307 20.2723 37.4007 20.1772C37.4285 20.1497 37.4622 20.0906 37.3766 20.0006C37.1767 19.7909 36.3135 19.4364 35.1377 19.5268Z" fill="white"/>
<path fill-rule="evenodd" clip-rule="evenodd" d="M41.6641 21.3125C42.2439 21.4966 42.8824 21.4242 43.0903 21.151C43.2982 20.8779 42.9966 20.5068 42.4167 20.3226C41.8369 20.1385 41.1984 20.2109 40.9905 20.4841C40.7826 20.7577 41.0842 21.1283 41.6641 21.3125Z" fill="white"/>
<path fill-rule="evenodd" clip-rule="evenodd" d="M45.3926 19.2066C44.9219 19.2014 44.5309 19.5356 44.5199 19.9535C44.5089 20.3715 44.8823 20.7138 45.3531 20.719C45.8239 20.7242 46.2148 20.39 46.2258 19.972C46.2368 19.5545 45.8634 19.2118 45.3926 19.2066Z" fill="white"/>
<path fill-rule="evenodd" clip-rule="evenodd" d="M13.7497 26.7377C13.6325 26.6425 13.44 26.6714 13.2533 26.6998C13.123 26.7197 12.9758 26.7415 12.814 26.74C12.4677 26.7358 12.1741 26.6402 12.0094 26.4764C11.7949 26.2634 11.8073 25.9457 12.0438 25.5822L12.1543 25.4193C12.5321 24.8712 13.164 23.9542 12.4545 23.0804C11.9201 22.4224 11.0488 22.0129 10.0011 21.9268C8.99516 21.8444 7.95992 22.0854 7.29953 22.5564C6.25769 23.2996 6.09442 24.3112 6.29576 24.6686C6.36971 24.7992 6.48539 24.8357 6.56885 24.8432C6.74603 24.8584 7.00813 24.7751 7.17213 24.4896L7.21899 24.3968C7.29221 24.2458 7.42838 23.9647 7.65168 23.7393C7.92111 23.4676 8.3399 23.2806 8.8319 23.212C9.33268 23.1424 9.84518 23.2044 10.2742 23.3862C11.0042 23.6948 11.2853 24.2733 10.9734 24.8248C10.8123 25.1102 10.5502 25.656 10.6081 26.1043C10.7252 27.0118 11.5884 27.3763 12.3637 27.4151C13.1178 27.4335 13.645 27.1595 13.7782 26.9597C13.8566 26.8413 13.7907 26.7694 13.7475 26.7386" fill="white"/>
<path fill-rule="evenodd" clip-rule="evenodd" d="M20.9222 10.0703C23.3822 8.23268 26.4095 6.63505 29.1221 5.738C29.2158 5.70676 29.3154 5.77256 29.2649 5.83221C29.0496 6.08452 28.6345 6.62463 28.5035 7.0341C28.483 7.098 28.5906 7.14582 28.6741 7.10937C30.3616 6.3657 33.2968 5.56853 35.8717 5.46629C35.9823 5.46202 36.0357 5.55339 35.9478 5.59741C35.5562 5.7915 35.1279 6.06037 34.8152 6.33209C34.7618 6.37848 34.8123 6.44475 34.9016 6.44523C36.7093 6.45375 39.2578 6.86274 40.9191 7.46535C41.0311 7.50606 40.9513 7.64665 40.8254 7.62818C38.3119 7.25564 34.198 6.97304 29.9238 7.64712C26.1086 8.24878 23.1962 9.17801 21.0722 10.1768C20.9646 10.2275 20.835 10.1352 20.9222 10.0703ZM33.1723 27.8749L33.173 27.8758L33.1745 27.8777L33.1723 27.8749ZM43.3154 28.6488C43.3886 28.629 43.4384 28.5755 43.4303 28.522C43.4201 28.4562 43.3293 28.4084 43.2275 28.415C43.2275 28.415 37.9788 28.9172 33.02 27.7437C33.5603 26.6086 34.9961 27.0185 37.1669 27.1317C41.0794 27.2827 44.5864 26.913 47.1781 26.432C49.4236 26.0155 52.3734 25.1937 54.6642 24.0244C55.4366 25.1217 55.7097 26.3298 55.7097 26.3298C55.7097 26.3298 56.3079 26.2607 56.8079 26.4595C57.2802 26.6474 57.6265 27.0379 57.39 28.0481C56.9082 29.935 55.668 31.4668 53.5829 32.8761C52.3133 33.7594 50.7729 34.5272 49.0099 35.0858C48.0735 35.4039 47.0771 35.6789 46.0235 35.9009C38.1633 37.561 30.1171 35.7362 27.5239 31.8176C27.3167 31.5232 27.1417 31.2145 27.004 30.8922C25.8992 28.3099 26.8371 25.2117 29.7701 23.2614C29.9509 23.1373 30.1354 22.9901 30.1354 22.806C30.1354 22.6521 29.9838 22.4898 29.8528 22.3743C28.8263 21.4119 25.2718 19.7721 25.9856 16.5986C26.4981 14.3189 29.5819 12.7132 32.457 12.8083L33.1855 12.8353C34.4316 12.8831 35.5181 12.9863 36.5438 13.0142C38.2607 13.0625 39.804 12.9011 41.6329 11.916C42.2494 11.5837 42.7443 11.2954 43.5811 11.2041C43.669 11.1941 43.8879 11.1435 44.325 11.1567C44.7716 11.1723 45.1962 11.2514 45.5777 11.4157C47.0434 12.0462 47.2513 13.5738 47.3275 14.6909C47.3707 15.3286 47.49 16.8718 47.531 17.3148C47.624 18.3279 48.0362 18.4703 48.8694 18.6479C49.3379 18.7477 49.7728 18.8221 50.4142 18.9385C52.3543 19.2907 53.5045 19.6481 54.2301 20.1073C54.6628 20.3941 54.8641 20.699 54.9263 20.9896C55.1548 22.0689 53.6305 23.402 49.5942 24.6133C45.1823 25.9373 39.8296 26.2725 36.1316 26.006L34.8357 25.9113C31.8779 25.6538 30.1903 28.1253 31.9657 29.819C33.1101 30.9106 36.2268 31.6207 39.345 31.6211C46.4943 31.6216 51.9897 29.6477 54.0339 27.943L54.1971 27.7925C54.2982 27.6945 54.2147 27.6406 54.0895 27.6959C52.4195 28.4349 45.0015 31.3684 37.0666 30.4855C37.0666 30.4855 36.1023 30.3828 35.2223 30.1617C34.5231 29.9856 33.0588 29.5501 32.8809 28.5792C39.2842 29.8597 43.3154 28.6488 43.3154 28.6488ZM11.8861 29.605C11.5493 29.6424 11.2052 29.6571 10.8582 29.6514C7.50718 29.5932 3.88822 27.6429 3.52874 25.33C3.13119 22.7733 5.15189 20.806 8.72912 20.3392C9.15669 20.2834 9.67357 20.2512 10.2307 20.2701C12.2353 20.3411 15.1888 21.3361 15.8631 24.1594C16.4605 26.6597 15.5117 29.2055 11.8861 29.605Z" fill="white"/>
</g>
<defs>
<clipPath id="clip0_202_11">
<rect width="225" height="40" fill="white"/>
</clipPath>
</defs>
</svg>
