<svg width="121" height="40" viewBox="0 0 121 40" fill="none" xmlns="http://www.w3.org/2000/svg">
<g clip-path="url(#clip0_202_7)">
<path d="M50.1566 17.901C50.1566 16.1117 47.4911 14.203 43.0486 14.203C38.073 14.203 32.3866 16.7081 31.4981 21.7182C30.6096 26.7284 35.2298 28.9949 40.0277 28.9949C44.8256 28.9949 47.1357 27.802 49.6235 26.1319C47.4911 24.3426 44.6479 25.1776 44.1148 25.2969C43.5817 25.5355 42.6932 25.7741 41.2716 25.7741C39.4946 25.7741 37.5399 25.1776 37.5399 22.9111C49.2681 22.0761 50.1566 19.6903 50.1566 17.901ZM44.4702 18.1396C44.4702 18.736 44.1148 19.6903 38.2507 20.1675C39.4946 17.1853 41.8047 16.9467 42.8709 16.9467C43.9371 17.066 44.4702 17.5431 44.4702 18.1396ZM24.7456 18.6167C24.7456 18.6167 22.2578 23.8654 22.0801 24.3426C22.0801 23.8654 20.1254 14.4416 20.1254 14.4416C15.8606 14.4416 13.5505 16.4695 12.4843 18.6167C12.4843 18.6167 9.46338 23.8654 9.28568 24.3426C9.10799 23.9847 8.75259 18.736 8.75259 18.736C8.39719 16.1117 4.84319 14.4416 2 14.4416L5.55399 28.7563C9.99648 28.7563 12.4843 26.7284 13.7282 24.5812C13.7282 24.5812 16.3937 19.9289 16.5714 19.6903C16.5714 19.9289 18.5261 28.7563 18.5261 28.7563C22.9686 28.7563 25.4564 26.8477 26.7003 24.8198L32.9197 14.4416C28.2995 14.4416 25.9895 16.4695 24.7456 18.6167ZM66.6827 14.0837C64.0172 14.0837 61.8848 15.0381 60.1078 16.5888L61.5294 8C57.7977 8 54.9545 10.1472 54.2437 13.2487L51.4005 28.637C53.5329 28.637 55.6653 28.2791 56.9092 27.2055C57.9754 28.1599 59.5747 28.8756 61.8848 28.8756C68.1043 28.8756 72.369 24.104 72.369 19.571C72.5467 15.3959 69.5259 14.0837 66.6827 14.0837ZM65.9719 21.4797C65.2611 23.9847 63.3064 25.6548 61.174 25.6548C59.2193 25.6548 58.3308 25.0583 58.3308 25.0583C58.6862 22.9111 59.0416 21.4797 59.7524 20.2868C60.4632 19.0939 62.2402 17.3045 64.0172 17.3045C65.7942 17.4238 66.6827 18.9746 65.9719 21.4797ZM88.0066 14.4416H83.7418V14.3223C84.0972 12.4137 84.6303 11.4594 86.9404 11.3401C88.362 11.2208 89.0728 10.7436 89.2505 10.1472C89.4282 9.67005 89.7836 8.11929 89.7836 8.11929C81.0763 8.11929 78.4108 10.6244 77.7 14.4416V14.5609H77.5223C76.1008 14.5609 74.5015 15.6345 74.3238 16.9467L74.146 17.4238H76.9892L75.7453 24.104L74.5014 30.7842L73.7907 33.17C73.9684 33.17 73.9683 33.17 74.146 33.17C78.2331 33.0507 80.7209 30.9035 81.4317 27.802L83.3864 17.3045H84.808C86.0519 17.3045 87.6512 16.4695 88.0066 14.9188V14.4416ZM110.397 14.203C105.421 14.203 100.801 16.7081 99.3794 20.5254C97.9578 24.3426 100.09 28.9949 107.376 28.9949C114.662 28.9949 118.926 24.2233 118.926 20.2868C118.749 16.3502 114.839 14.203 110.397 14.203ZM112.351 21.3604C112.174 23.1497 110.93 25.7741 107.731 25.7741C104.533 25.7741 105.066 22.6726 105.243 21.2411C105.599 19.6903 106.843 17.4238 109.686 17.4238C112.351 17.4238 112.707 19.4518 112.351 21.3604ZM92.0937 8.11929L88.5397 27.6827L87.8289 30.0685C88.0066 30.0685 88.0066 30.0685 88.1843 30.0685C92.0937 30.0685 94.9369 27.6827 95.2923 24.8198L97.4247 13.6066C97.9578 10.2665 94.7592 8.11929 92.0937 8.11929Z" fill="white"/>
</g>
<defs>
<clipPath id="clip0_202_7">
<rect width="121" height="40" fill="white"/>
</clipPath>
</defs>
</svg>
