<svg width="202" height="40" viewBox="0 0 202 40" fill="none" xmlns="http://www.w3.org/2000/svg">
<g clip-path="url(#clip0_202_9)">
<path d="M49.8547 11.6592C41.9611 11.6592 35.7934 17.0004 35.7934 24.1506C35.7934 31.3009 41.8052 36.5964 49.8547 36.5964C57.9041 36.5964 64.0205 31.2095 64.0205 24.105C64.0205 17.0461 58.0087 11.6592 49.8547 11.6592ZM49.9079 31.4434C45.4128 31.4434 42.1188 28.3315 42.1188 24.1524C42.1188 19.9259 45.3595 16.8158 49.8547 16.8158C54.403 16.8158 57.695 19.9733 57.695 24.1524C57.695 28.3315 54.403 31.4434 49.9079 31.4434ZM65.7445 17.0935H69.6653V36.134H75.9376V12.1233H65.7445V17.0935ZM20.0081 16.814C23.302 16.814 25.9154 18.6249 26.9076 21.3183H33.5467C32.3436 15.5604 27.0122 11.6592 20.0613 11.6592C12.1677 11.6592 6 17.0004 6 24.1524C6 31.3045 12.0119 36.5982 20.0613 36.5982C26.8563 36.5982 32.2923 32.6969 33.4954 26.8916H26.9076C25.9668 29.585 23.3533 31.4434 20.0594 31.4434C15.511 31.4434 12.3235 28.3315 12.3235 24.1524C12.3255 19.9259 15.4617 16.814 20.0081 16.814ZM184.921 21.8299L180.322 21.2269C178.127 20.9491 176.559 20.2986 176.559 18.7655C176.559 17.0935 178.598 16.2584 181.367 16.2584C184.399 16.2584 186.334 17.4188 186.752 19.3228H192.815C192.135 14.4932 187.953 11.6609 181.525 11.6609C174.886 11.6609 170.496 14.6796 170.496 18.9519C170.496 23.0378 173.371 25.4077 179.172 26.1497L183.772 26.7527C186.02 27.0304 187.275 27.8216 187.275 29.3072C187.275 31.2113 185.08 32.0007 182.048 32.0007C178.336 32.0007 176.245 30.654 175.932 28.611H169.764C170.34 33.3017 174.468 36.5982 181.995 36.5982C188.843 36.5982 193.389 33.8116 193.389 29.0277C193.389 24.7555 190.097 22.5261 184.921 21.8299ZM72.8015 2.23207C70.5017 2.23207 68.7762 3.71769 68.7762 5.76064C68.7762 7.80358 70.4999 9.28919 72.8015 9.28919C75.1013 9.28919 76.8273 7.80358 76.8273 5.76064C76.8273 3.71769 75.1013 2.23207 72.8015 2.23207ZM164.85 20.3443C164.85 15.1437 161.296 11.6609 153.769 11.6609C146.661 11.6609 142.688 14.866 141.903 19.7887H148.124C148.438 17.8847 150.11 16.3059 153.665 16.3059C156.854 16.3059 158.422 17.5594 158.422 19.0925C158.422 21.0898 155.546 21.5996 151.992 21.9249C147.183 22.389 141.225 23.8746 141.225 29.4479C141.225 33.7676 144.832 36.5525 150.582 36.5525C155.077 36.5525 157.899 34.8805 159.312 32.2328C159.521 34.601 161.507 36.134 164.278 36.134H167.937V31.1656H164.852V20.3443H164.85ZM158.682 26.3817C158.682 29.5868 155.546 31.955 151.73 31.955C149.377 31.955 147.391 31.0724 147.391 29.2158C147.391 26.8476 150.58 26.1971 153.507 25.9194C156.33 25.6873 157.898 25.1299 158.682 24.061V26.3817ZM125.386 11.6592C121.883 11.6592 118.956 12.9602 116.866 15.142V2H110.593V36.134H116.761V32.9765C118.851 35.2515 121.832 36.5982 125.386 36.5982C132.913 36.5982 138.611 31.3045 138.611 24.1524C138.611 17.0004 132.808 11.6592 125.386 11.6592ZM124.446 31.4434C119.95 31.4434 116.657 28.3315 116.657 24.1524C116.657 19.9733 120.002 16.8158 124.497 16.8158C129.045 16.8158 132.232 19.9277 132.232 24.1524C132.232 28.3315 128.94 31.4434 124.446 31.4434ZM95.5908 11.6592C91.514 11.6592 88.8473 13.1448 87.2795 15.2352V12.1233H81.0582V36.1323H87.3305V23.0835C87.3305 19.4142 89.9438 16.814 93.812 16.814C97.4194 16.814 99.6658 19.089 99.6658 22.3873V36.134H105.938V21.9706C105.941 15.9314 102.439 11.6592 95.5908 11.6592Z" fill="white"/>
</g>
<defs>
<clipPath id="clip0_202_9">
<rect width="202" height="40" fill="white"/>
</clipPath>
</defs>
</svg>
